HIERARCHY
ROOT Hips
{
	OFFSET -0.179506 -22.333345 2.821913
	CHANNELS 6 Xposition Yposition Zposition Zrotation Yrotation Xrotation 
	JOINT LeftUpLeg
	{
		OFFSET 6.951974 -9.140623 -0.681533
		CHANNELS 3 Zrotation Yrotation Xrotation
		JOINT LeftLeg
		{
			OFFSET 3.427654 -37.519855 -0.449580
			CHANNELS 3 Zrotation Yrotation Xrotation
			JOINT LeftFoot
			{
				OFFSET -1.359570 -39.796059 -4.369333
				CHANNELS 3 Zrotation Yrotation Xrotation
				JOINT LeftToe
				{
					OFFSET 2.635814 -5.579078 11.928840
					CHANNELS 3 Zrotation Yrotation Xrotation
					End Site
					{
						OFFSET 0.000000 0.000000 0.000000
					}
				}
			}
		}
	}
	JOINT RightUpLeg
	{
		OFFSET -6.767048 -9.052170 -0.431982
		CHANNELS 3 Zrotation Yrotation Xrotation
		JOINT RightLeg
		{
			OFFSET -3.829005 -38.256897 -0.885003
			CHANNELS 3 Zrotation Yrotation Xrotation
			JOINT RightFoot
			{
				OFFSET 1.577377 -39.841461 -4.231180
				CHANNELS 3 Zrotation Yrotation Xrotation
				JOINT RightToe
				{
					OFFSET -2.537174 -4.814398 12.334795
					CHANNELS 3 Zrotation Yrotation Xrotation
					End Site
					{
						OFFSET 0.000000 0.000000 0.000000
					}
				}
			}
		}
	}
	JOINT Spine
	{
		OFFSET -0.253288 10.896323 -2.669631
		CHANNELS 3 Zrotation Yrotation Xrotation
		JOINT Spine1
		{
			OFFSET 0.548704 13.518043 0.109247
			CHANNELS 3 Zrotation Yrotation Xrotation
			JOINT Spine2
			{
				OFFSET 0.145701 5.292222 2.542457
				CHANNELS 3 Zrotation Yrotation Xrotation
				JOINT Neck
				{
					OFFSET -0.277840 21.387037 -4.285703
					CHANNELS 3 Zrotation Yrotation Xrotation
					JOINT Head
					{
						OFFSET 0.515184 6.496960 5.134897
						CHANNELS 3 Zrotation Yrotation Xrotation
						End Site
						{
							OFFSET 0.000000 0.000000 0.000000
						}
					}
				}
				JOINT LeftShoulder
				{
					OFFSET 7.884473 12.174932 -3.408961
					CHANNELS 3 Zrotation Yrotation Xrotation
					JOINT LeftArm
					{
						OFFSET 9.097692 3.046888 -0.886815
						CHANNELS 3 Zrotation Yrotation Xrotation
						JOINT LeftForeArm
						{
							OFFSET 25.961220 -1.277207 -2.745643
							CHANNELS 3 Zrotation Yrotation Xrotation
							JOINT LeftHand
							{
								OFFSET 24.923361 0.898606 -0.117091
								CHANNELS 3 Zrotation Yrotation Xrotation
								End Site
								{
									OFFSET 0.000000 0.000000 0.000000
								}
							}
						}
					}
				}
				JOINT RightShoulder
				{
					OFFSET -8.175920 11.883285 -3.861528
					CHANNELS 3 Zrotation Yrotation Xrotation
					JOINT RightArm
					{
						OFFSET -9.601238 3.255117 -0.914307
						CHANNELS 3 Zrotation Yrotation Xrotation
						JOINT RightForeArm
						{
							OFFSET -25.374195 -1.332924 -2.140099
							CHANNELS 3 Zrotation Yrotation Xrotation
							JOINT RightHand
							{
								OFFSET -25.529810 0.777228 -0.555919
								CHANNELS 3 Zrotation Yrotation Xrotation
								End Site
								{
									OFFSET 0.000000 0.000000 0.000000
								}
							}
						}
					}
				}
			}
		}
	}
}
MOTION
Frames: 13
Frame Time: 0.033333
-17.877527 28.384197 14.536696 -129.135163 -24.495495 170.239126 37.722235 37.422747 -62.483726 1.193878 32.893066 132.774743 -3.748879 -11.593915 -35.132621 nan nan nan -10.082253 -9.432192 8.477479 4.096671 -4.416688 12.889203 -0.145875 3.142276 11.805972 nan nan nan -21.361003 3.168071 14.638036 -4.369172 -16.044101 1.254313 -2.218580 -5.407605 -7.234332 17.527848 1.496041 -3.999227 13.993574 -4.685624 -20.952930 -21.600334 -10.328173 4.215589 -22.960256 -23.980692 0.636778 166.232382 -42.033701 -133.857253 19.683520 -29.251807 -2.214244 4.106438 10.985354 -1.468406 26.836182 32.634259 -27.552962 -136.012582 54.254580 -122.968493 -22.728041 10.766708 -23.581823 
-18.101835 28.669468 14.572136 -129.404332 -24.468865 170.398027 37.795332 37.363185 -62.247749 0.883624 33.052628 132.115944 -3.689852 -11.888885 -35.122416 nan nan nan -10.226866 -9.205553 8.369181 4.118933 -4.367757 12.649924 -0.074373 3.339061 12.630754 nan nan nan -21.669013 3.034444 14.432382 -4.518109 -16.132128 2.361930 -2.246866 -5.556688 -8.075460 18.036439 1.959114 -3.845872 13.838068 -4.876246 -20.702088 -21.419662 -10.194508 4.220679 -22.935942 -23.110323 1.007853 166.193314 -41.630537 -133.260755 21.078392 -29.652384 -3.046549 4.385112 11.076684 -1.614576 27.855255 32.890555 -26.222460 -136.903882 53.915422 -123.799086 -23.726186 11.053481 -24.829302 
-18.381178 28.868723 14.581683 -129.314811 -24.690539 170.898911 37.497840 37.307312 -62.725904 0.600550 33.094437 131.386139 -3.937408 -12.289296 -35.110152 nan nan nan -10.046869 -9.201121 7.888649 4.256432 -4.615083 12.331126 0.038320 3.378673 13.584507 nan nan nan -21.483823 2.767955 14.073690 -4.497052 -16.352051 1.433864 -2.312521 -5.715458 -7.300794 17.635357 1.777897 -2.941693 14.241589 -4.412620 -21.383585 -22.245749 -10.552281 4.734603 -21.740271 -21.777146 -0.005882 166.029266 -40.808615 -133.010272 19.962316 -30.732754 -2.066148 4.593217 11.523493 -1.429846 28.205271 32.473175 -26.574986 -138.068419 53.872653 -124.348477 -22.841909 11.622420 -24.392972 
-18.670851 29.066090 14.659559 -129.169797 -24.988863 171.301921 37.032914 37.061582 -63.170287 0.308955 33.178438 130.552560 -3.994910 -12.268955 -35.039267 nan nan nan -9.819139 -9.302302 7.363076 4.292851 -4.915792 12.179559 0.226324 2.955836 14.426933 nan nan nan -21.284500 2.523517 13.977349 -4.376854 -16.615691 0.103928 -2.384382 -5.783582 -5.963620 17.067993 1.506581 -2.890362 14.630348 -3.523391 -21.883631 -22.961459 -10.983379 5.207161 -21.372196 -20.565850 0.092126 166.439835 -40.319674 -133.481573 22.489385 -30.455023 -3.935951 4.883705 11.836678 -1.543789 28.276946 32.114769 -26.929730 -139.410185 53.834230 -125.212794 -23.070476 11.315976 -23.583040 
-18.901085 29.247480 14.732935 -128.953368 -25.179241 172.004213 36.424148 36.983817 -63.876801 0.036270 33.232080 129.721903 -4.044631 -12.223976 -35.008849 nan nan nan -9.460276 -9.449707 6.398902 4.323357 -5.342921 12.213762 0.671507 2.420355 15.048108 nan nan nan -20.908281 2.097743 13.404991 -4.257053 -16.957350 -2.128060 -2.577621 -5.759067 -3.822507 16.227193 0.969147 -2.202650 15.336431 -2.500992 -22.406284 -23.907904 -11.548456 5.967696 -20.148422 -18.803306 -0.892159 166.588381 -39.399867 -134.221722 22.880742 -30.118485 -4.170069 4.785363 12.563769 -1.086260 28.487874 31.797202 -27.986159 -141.254384 53.845455 -126.942501 -22.748709 11.076752 -23.126317 
-19.138039 29.438028 14.828347 -128.430302 -25.489552 173.025619 35.496496 36.979945 -65.305967 -0.292806 33.152730 128.821082 -4.070209 -12.068063 -35.103097 nan nan nan -8.595988 -9.529083 5.043621 4.315104 -5.619617 12.123364 0.950564 1.601108 15.591993 nan nan nan -20.183370 1.898416 12.855611 -3.929489 -17.009594 -5.266068 -2.684822 -6.185098 -1.625551 15.019890 -0.377783 -1.298492 15.918813 -1.227440 -22.447024 -25.564151 -12.253388 7.020890 -18.807476 -16.928300 -2.140046 166.650349 -38.267268 -134.656118 21.376778 -29.665109 -3.398357 4.457794 12.903178 -0.862607 29.034678 30.974873 -28.806417 -143.348673 53.905241 -129.096920 -21.809847 10.850126 -23.298033 
-19.311678 29.732048 14.881661 -128.500046 -25.409658 172.798113 35.352929 36.569626 -64.375573 -0.518176 32.929916 127.993494 -3.540305 -11.680116 -35.449255 nan nan nan -8.477846 -9.378887 5.054173 4.116201 -5.907440 12.317607 0.665890 1.352771 15.639672 nan nan nan -20.232046 1.471906 12.525133 -4.247555 -17.209803 -3.166735 -2.870808 -6.101904 -2.769335 15.661958 0.754386 -1.742377 15.657785 -1.694951 -22.111329 -25.271973 -12.150660 6.897011 -18.374054 -15.580122 -2.576066 166.283514 -37.496626 -133.261696 21.163407 -30.065306 -2.189758 5.318176 13.536435 -1.022801 29.567959 31.323189 -27.274353 -143.545295 53.090100 -128.613568 -22.351817 10.890106 -24.719385 
-19.530447 29.995739 14.943876 -128.444827 -25.479143 172.739786 35.059288 36.210404 -63.791170 -0.773824 32.845456 127.195633 -3.365595 -11.299720 -35.450401 nan nan nan -8.322964 -9.333823 4.966232 4.078591 -6.429070 12.377472 0.341807 1.056330 16.120802 nan nan nan -20.220850 1.125484 12.437013 -4.269510 -17.380071 -2.629634 -2.936072 -6.035331 -2.955842 16.323404 0.504626 -1.401255 16.006464 -1.797701 -22.112981 -25.593027 -11.969540 6.931947 -18.493266 -14.448138 -2.661338 166.192792 -36.943428 -132.260742 21.386771 -30.407967 -2.534493 5.934263 13.614151 -1.563194 30.301364 31.572362 -26.108648 -144.507340 52.830525 -128.902934 -22.376624 10.793628 -25.398663 
-19.961187 30.077049 14.941682 -128.278084 -26.287072 172.317567 34.584438 35.149589 -63.335907 -1.099042 32.934177 126.496223 -3.534104 -11.217163 -35.131282 nan nan nan -8.473286 -9.718309 5.842599 4.363341 -6.971045 11.683039 -0.029078 0.883254 17.152386 nan nan nan -19.533470 1.183213 13.105098 -4.335242 -18.083489 -2.425575 -3.164069 -6.407641 -2.901339 16.946044 -0.256243 -1.395681 16.169012 -1.386284 -22.252595 -26.504829 -11.676821 6.987866 -18.181245 -13.694141 -2.950989 166.273807 -36.413606 -132.496880 20.646504 -30.978898 -2.018492 5.926750 13.528746 -1.989764 31.199547 31.631743 -25.966634 -145.797737 52.702014 -130.250014 -21.114872 11.286878 -23.332864 
-20.108700 30.352242 14.818222 -127.994349 -25.736147 172.298200 34.854886 35.709517 -62.361832 -1.678299 32.870509 125.609251 -3.647649 -11.304034 -35.283199 nan nan nan -7.695766 -9.370294 5.497261 3.950477 -6.956274 11.756588 -0.277508 0.653072 17.776797 nan nan nan -19.675599 0.799808 12.812636 -4.181384 -17.646384 -2.504106 -3.078944 -6.161664 -2.618729 17.745512 0.229362 -1.730147 16.127282 -1.918541 -22.107102 -26.585500 -11.179089 6.981588 -18.516039 -13.328219 -3.132038 166.418812 -35.895721 -132.462112 20.211501 -31.200989 -1.544320 5.772927 13.374403 -1.755097 31.894695 31.885962 -25.978193 -146.743323 52.499888 -130.250494 -21.327254 11.490671 -23.308486 
-20.160841 30.656378 14.701841 -127.793622 -24.863064 172.427009 35.233094 36.580034 -61.258161 -2.104885 32.745194 124.841241 -3.625605 -11.300472 -35.658542 nan nan nan -6.987518 -8.953635 4.941666 3.590319 -6.709620 11.945093 -0.338474 0.619953 18.398005 nan nan nan -19.905947 0.310420 12.077441 -4.101441 -17.027758 -2.536712 -3.079763 -5.768781 -2.351753 17.932485 0.974115 -1.757692 15.978346 -1.824136 -22.408826 -26.802027 -10.694866 7.109103 -18.587052 -12.687551 -3.144082 166.529582 -35.451917 -132.813778 20.688184 -31.045685 -1.873812 6.059949 13.291811 -1.424567 32.322110 32.285839 -25.832466 -147.736400 52.447643 -130.594168 -21.870510 11.430920 -23.573195 
-20.241581 30.894745 14.713732 -127.642919 -24.411220 172.509426 35.240668 36.834574 -60.573662 -2.107591 32.581673 124.276825 -3.386117 -11.034975 -35.844352 nan nan nan -6.628633 -8.730870 4.626258 3.523374 -6.617065 11.930395 -0.231046 0.633456 19.027730 nan nan nan -19.755616 -0.067437 11.736411 -4.077104 -16.760673 -2.914219 -3.275305 -5.516186 -1.980140 17.300555 1.862049 -2.143218 15.390952 -0.801151 -22.904257 -27.081499 -10.279686 7.214067 -18.785271 -12.040854 -2.807291 166.468205 -35.091281 -133.463321 22.193029 -30.357931 -3.769291 6.641852 13.194317 -1.450571 32.509596 32.624044 -25.406572 -148.514350 52.427841 -131.097157 -22.129110 11.099839 -23.289685 
-20.382099 30.977236 14.742179 -127.483575 -24.364036 172.541508 35.020416 36.690251 -60.305165 -1.999193 32.581596 123.899876 -3.161192 -10.559887 -35.736078 nan nan nan -6.580943 -8.846233 4.452620 3.709091 -6.685907 11.968906 -0.280366 0.711293 19.601240 nan nan nan -19.308319 -0.093047 11.586251 -3.989245 -16.743691 -3.099305 -3.366742 -5.509317 -1.985172 17.583685 1.204244 -1.889562 14.583901 -0.401245 -22.155404 -27.530320 -10.021332 7.702652 -19.359735 -11.736029 -2.879799 166.603363 -34.915686 -133.438618 24.669119 -29.999918 -4.513765 6.521902 13.142158 -1.197815 32.766675 32.659204 -25.463248 -149.366873 52.347071 -131.658040 -22.767201 10.864252 -23.038560 
